<?xml version="1.0" standalone="no"?>
<!DOCTYPE svg PUBLIC "-//W3C//DTD SVG 20010904//EN"
 "http://www.w3.org/TR/2001/REC-SVG-20010904/DTD/svg10.dtd">
<svg version="1.0" xmlns="http://www.w3.org/2000/svg"
 width="1080.000000pt" height="1080.000000pt" viewBox="0 0 1080.000000 1080.000000"
 preserveAspectRatio="xMidYMid meet">

<g transform="translate(0.000000,1080.000000) scale(0.100000,-0.100000)"
fill="#000000" stroke="none">
<path d="M5000 10231 c-86 -24 -126 -46 -180 -100 -57 -57 -85 -111 -101 -191
-22 -112 17 -237 99 -323 43 -44 148 -97 193 -97 33 0 84 -26 135 -70 17 -15
53 -37 79 -50 96 -47 253 -24 307 43 18 23 12 44 -24 84 l-20 21 -41 -28 c-23
-15 -52 -31 -64 -34 -22 -7 -73 10 -108 37 -19 14 -18 15 15 30 57 23 136 102
166 165 36 76 45 195 19 272 -43 130 -129 207 -272 244 -76 20 -120 19 -203
-3z m175 -132 c122 -31 194 -203 134 -322 -47 -94 -103 -127 -212 -127 -66 0
-78 3 -114 29 -59 43 -89 88 -103 154 -36 176 115 311 295 266z"/>
<path d="M5844 10141 c-27 -45 -58 -96 -69 -115 -25 -43 -103 -176 -115 -196
-112 -187 -161 -273 -157 -276 3 -3 35 -10 73 -15 78 -11 76 -12 119 69 35 65
19 62 225 48 119 -9 160 -22 160 -54 0 -9 7 -30 15 -46 8 -15 15 -37 15 -47 0
-12 11 -24 26 -30 33 -12 144 -24 144 -16 0 4 -15 53 -34 109 -18 57 -43 132
-54 168 -38 125 -94 306 -117 375 -25 79 -37 89 -126 99 l-57 7 -48 -80z m126
-143 c5 -24 17 -65 25 -93 26 -88 36 -137 30 -143 -3 -3 -32 -1 -63 6 -32 7
-71 12 -88 12 -16 0 -39 3 -51 6 l-22 6 29 51 c17 29 42 75 56 102 37 68 55
95 65 95 4 0 13 -19 19 -42z"/>
<path d="M6794 9995 c-7 -19 -14 -40 -14 -48 0 -7 -4 -17 -9 -22 -5 -6 -20
-44 -35 -85 -24 -70 -47 -133 -125 -350 -17 -47 -31 -94 -31 -105 0 -17 21
-27 123 -63 67 -24 131 -48 142 -53 11 -5 34 -13 50 -18 17 -6 62 -21 100 -35
39 -14 75 -26 80 -26 13 0 48 87 42 104 -3 7 -52 30 -109 50 -56 21 -119 43
-138 51 -19 7 -50 19 -67 25 -21 8 -33 19 -33 31 0 31 41 130 56 136 8 3 76
-18 152 -46 76 -28 143 -51 148 -51 6 0 16 17 22 39 22 70 19 74 -60 101 -40
13 -91 32 -114 42 -22 10 -47 18 -55 18 -8 0 -23 7 -33 15 -17 13 -18 19 -7
57 18 63 35 98 46 98 11 0 124 -37 170 -56 17 -6 47 -19 68 -28 20 -9 55 -19
76 -22 l38 -6 17 52 c20 60 19 61 -54 84 -25 8 -70 24 -100 36 -30 12 -66 25
-80 30 -14 5 -70 25 -124 44 -55 20 -106 36 -113 36 -8 0 -21 -16 -29 -35z"/>
<path d="M3668 9728 c-31 -29 -58 -60 -62 -68 -4 -10 -8 -11 -11 -4 -22 45
-27 46 -87 20 -31 -14 -59 -29 -62 -34 -3 -5 4 -29 15 -53 35 -75 45 -100 104
-239 81 -194 84 -200 95 -200 6 0 36 11 66 25 36 17 54 31 54 43 0 16 -48 138
-87 220 -8 17 -15 55 -15 82 0 57 13 78 78 119 l41 27 -26 54 c-14 30 -31 56
-37 57 -6 2 -36 -20 -66 -49z"/>
<path d="M7402 9608 c-7 -7 -12 -16 -12 -20 0 -5 -11 -25 -23 -46 -13 -20 -40
-66 -59 -102 -90 -167 -117 -217 -134 -246 -22 -39 -13 -54 57 -89 57 -29 51
-35 139 124 68 123 96 156 140 166 40 9 102 -10 131 -41 19 -20 24 -36 23 -74
0 -27 -6 -55 -12 -63 -13 -16 -56 -91 -108 -191 -41 -79 -43 -75 48 -122 l47
-24 73 133 c40 72 83 155 95 182 39 88 29 155 -33 224 -53 58 -138 95 -207 90
-45 -4 -45 -4 -40 26 4 27 0 32 -46 58 -58 31 -62 32 -79 15z"/>
<path d="M4295 9566 c-35 -15 -65 -55 -65 -85 0 -11 9 -36 21 -55 47 -80 169
-44 169 51 0 47 -16 72 -55 89 -40 16 -33 16 -70 0z"/>
<path d="M3140 9488 c-128 -29 -229 -151 -230 -278 0 -96 60 -196 149 -248 40
-23 57 -27 126 -27 67 0 90 5 139 28 85 39 138 86 166 146 27 59 24 65 -42 76
-35 6 -40 4 -91 -48 -76 -78 -160 -97 -225 -51 -19 13 -21 18 -10 31 7 9 27
22 43 30 74 35 271 151 285 168 8 10 7 21 -4 42 -36 66 -101 115 -174 131 -61
14 -70 14 -132 0z m118 -128 c19 -11 32 -26 30 -33 -5 -15 -209 -138 -223
-134 -5 2 -11 21 -13 43 -3 50 25 97 75 123 49 26 90 26 131 1z"/>
<path d="M7961 9157 c-96 -52 -152 -138 -152 -236 0 -73 22 -125 79 -184 52
-54 96 -77 161 -86 l44 -6 -27 -32 c-36 -43 -82 -57 -137 -43 -52 14 -150 108
-170 163 -14 40 -33 46 -65 22 -10 -8 -27 -15 -37 -15 -30 0 -30 -26 2 -82 70
-124 231 -238 336 -238 93 0 153 45 291 219 63 80 129 164 147 185 51 63 56
70 57 82 0 7 -24 30 -54 53 l-55 41 -18 -24 -19 -24 -18 49 c-23 67 -66 112
-138 149 -79 39 -162 42 -227 7z m203 -140 c60 -34 81 -69 81 -133 0 -48 -4
-57 -36 -90 -22 -22 -51 -39 -77 -45 -36 -8 -47 -6 -85 17 -86 52 -113 140
-65 210 43 63 115 80 182 41z"/>
<path d="M2566 9119 c-64 -34 -124 -102 -137 -155 l-12 -47 -18 22 c-11 14
-23 20 -31 15 -25 -15 -98 -77 -98 -83 0 -4 28 -41 63 -83 59 -72 222 -276
334 -417 29 -36 56 -67 61 -69 12 -4 112 76 112 89 0 9 -69 100 -90 119 -10 9
-50 68 -50 74 0 3 10 6 23 6 57 1 145 50 190 108 36 46 61 133 53 182 -15 95
-95 203 -179 243 -51 25 -170 22 -221 -4z m149 -133 c18 -8 48 -34 65 -58 29
-40 31 -48 28 -107 -4 -56 -8 -67 -34 -87 -67 -55 -148 -50 -209 13 -78 80
-63 197 30 238 40 18 78 18 120 1z"/>
<path d="M8732 8917 c-78 -83 53 -212 133 -132 35 34 33 76 -6 120 -39 44 -92
49 -127 12z"/>
<path d="M8432 8587 c-100 -101 -182 -187 -182 -192 0 -15 83 -95 98 -95 14 0
363 351 371 372 4 12 -78 98 -94 98 -6 0 -93 -82 -193 -183z"/>
<path d="M2073 8647 c-121 -51 -208 -173 -208 -292 0 -199 218 -340 390 -252
72 36 151 120 175 184 54 143 -4 284 -143 352 -77 38 -139 40 -214 8z m162
-155 c53 -42 70 -73 70 -129 0 -60 -23 -98 -76 -126 -73 -39 -162 0 -212 92
l-27 49 20 44 c10 24 29 53 42 65 48 44 130 46 183 5z"/>
<path d="M8745 8459 c-55 -45 -143 -115 -195 -157 -52 -41 -99 -79 -104 -83
-11 -10 69 -119 88 -119 7 0 26 11 42 25 16 14 73 59 127 100 87 67 103 75
142 75 72 0 144 -77 130 -140 -7 -31 -82 -105 -192 -190 -39 -30 -74 -63 -76
-73 -5 -17 65 -117 81 -117 5 0 32 20 61 45 29 25 88 72 131 106 113 87 150
142 150 223 0 24 -7 60 -16 81 -23 56 -106 132 -160 148 -40 11 -44 15 -30 26
9 8 16 20 16 29 0 19 -68 102 -83 102 -7 0 -57 -37 -112 -81z"/>
<path d="M1460 8279 c-23 -33 -41 -62 -39 -63 4 -3 119 -87 328 -238 63 -46
142 -104 177 -130 92 -70 103 -70 149 -7 l39 52 -35 31 c-20 17 -79 63 -133
101 -143 103 -292 212 -365 267 -35 26 -67 48 -71 48 -4 0 -26 -27 -50 -61z"/>
<path d="M9114 7890 c-56 -18 -127 -73 -159 -124 -28 -46 -30 -56 -30 -140 1
-91 2 -98 52 -190 21 -39 87 -101 124 -116 42 -18 62 -4 73 50 8 35 7 44 -7
51 -101 57 -150 190 -94 255 l24 28 35 -60 c18 -32 63 -110 99 -171 49 -87 69
-113 85 -113 31 0 100 53 131 102 26 39 28 51 28 139 0 93 -1 98 -37 155 -24
39 -55 72 -92 97 -49 34 -64 39 -128 42 -40 3 -87 0 -104 -5z m183 -147 c50
-33 79 -109 62 -163 -10 -33 -33 -60 -50 -60 -9 0 -129 212 -129 228 0 24 76
21 117 -5z"/>
<path d="M1491 7873 c-49 -24 -129 -106 -151 -155 -28 -62 -28 -189 1 -243 28
-53 75 -102 124 -128 32 -18 57 -22 130 -22 81 0 94 3 131 27 52 33 108 99
141 162 19 38 25 64 25 122 1 41 -2 77 -5 80 -3 3 -28 -2 -56 -11 -49 -16 -51
-18 -51 -54 0 -52 -45 -137 -88 -166 -36 -24 -105 -34 -116 -17 -2 4 26 61 64
125 38 65 75 128 82 141 7 13 21 38 31 55 15 27 16 35 5 48 -41 49 -197 70
-267 36z m133 -121 c4 -6 -63 -128 -123 -222 -14 -23 -42 -1 -58 45 -30 87 40
185 134 185 23 0 44 -4 47 -8z"/>
<path d="M1171 7389 c-38 -84 -36 -89 116 -241 l138 -138 -202 0 c-121 0 -204
-4 -208 -10 -3 -5 -17 -40 -30 -76 l-24 -67 257 6 c344 9 325 5 362 84 18 37
27 69 23 76 -5 7 -99 102 -210 211 l-202 200 -20 -45z"/>
<path d="M9398 7316 c-134 -37 -206 -145 -195 -293 9 -115 64 -217 140 -258
42 -22 56 -15 76 40 13 36 12 37 -31 83 -73 79 -86 168 -34 229 20 24 26 25
40 14 9 -7 16 -18 16 -24 0 -8 72 -196 120 -314 11 -27 25 -28 73 -8 50 21
104 70 130 119 33 62 30 191 -7 263 -65 126 -197 186 -328 149z m154 -135 c37
-14 65 -46 84 -96 17 -45 17 -47 -4 -90 -27 -56 -55 -73 -70 -42 -27 54 -90
222 -86 229 7 11 47 10 76 -1z"/>
<path d="M1044 6731 c-82 -30 -150 -100 -165 -170 -4 -20 -12 -53 -17 -73 -7
-28 -6 -53 7 -100 22 -85 65 -147 126 -180 43 -24 61 -28 137 -28 73 0 94 4
137 25 78 40 131 122 152 238 13 71 2 155 -25 192 -12 17 -15 16 -59 -10 -49
-28 -57 -48 -32 -81 23 -31 18 -58 -28 -154 -16 -32 -73 -70 -105 -70 -21 0
-24 3 -19 28 9 44 66 274 77 308 22 66 9 82 -76 89 -44 4 -72 1 -110 -14z m76
-144 c0 -13 -9 -57 -20 -98 -11 -41 -20 -86 -20 -100 0 -34 -23 -54 -47 -41
-76 41 -80 166 -7 230 46 40 94 45 94 9z"/>
<path d="M9828 6735 c-3 -4 -39 -15 -80 -25 -40 -10 -125 -33 -188 -50 -63
-17 -136 -36 -162 -42 -40 -9 -48 -14 -48 -33 0 -29 31 -125 40 -125 4 0 43 9
86 21 146 39 209 50 241 44 40 -7 92 -58 100 -97 3 -16 12 -32 20 -35 19 -7
100 16 114 33 15 19 -33 104 -71 126 -37 21 -38 34 -5 42 29 7 30 20 12 91
-10 37 -18 51 -33 53 -11 2 -23 0 -26 -3z"/>
<path d="M795 6091 c-87 -43 -156 -124 -185 -220 -15 -47 -24 -118 -32 -245
-12 -200 -13 -196 58 -196 22 0 65 -5 95 -10 51 -10 355 -31 484 -34 l60 -1 6
125 c4 69 10 153 14 188 8 60 0 118 -27 208 -14 48 -73 118 -135 161 l-55 38
-122 3 c-104 2 -127 0 -161 -17z m263 -163 c55 -26 91 -80 100 -150 7 -56 1
-212 -9 -222 -5 -6 -278 8 -386 20 l-53 5 0 87 c1 160 60 261 164 280 65 13
130 5 184 -20z"/>
<path d="M9509 5951 c-70 -70 -2 -177 95 -150 61 17 83 77 51 138 -16 33 -33
41 -82 41 -25 0 -43 -8 -64 -29z"/>
<path d="M9527 5448 c-4 -47 -2 -77 5 -85 6 -8 40 -28 75 -45 l63 -32 -5 -71
c-2 -38 -7 -113 -11 -167 -6 -108 3 -97 -111 -133 -47 -15 -53 -20 -53 -43 0
-15 -3 -51 -6 -79 -6 -49 -5 -53 14 -53 11 0 24 5 27 10 3 6 15 10 27 10 11 0
34 6 51 14 18 8 48 20 67 26 19 7 51 18 70 26 35 13 147 54 320 117 148 54
148 54 155 101 4 23 5 58 3 79 -3 37 -6 40 -88 84 -47 24 -121 64 -165 88
-191 102 -425 225 -428 225 -2 0 -7 -32 -10 -72z m400 -290 l125 -61 -23 -18
c-13 -10 -31 -19 -39 -19 -9 0 -54 -13 -100 -30 -122 -43 -118 -44 -113 48 5
91 12 142 20 142 3 0 62 -28 130 -62z"/>
<path d="M985 4991 c-89 -22 -157 -89 -186 -180 -32 -104 -4 -220 73 -299 57
-58 114 -82 193 -82 161 0 277 118 279 285 1 108 -36 207 -96 254 l-26 21 -37
-44 -37 -45 34 -41 c29 -37 33 -50 36 -113 3 -68 2 -74 -28 -109 -17 -21 -37
-38 -45 -38 -17 0 -35 52 -35 99 0 20 -7 72 -15 116 -8 44 -18 103 -22 130 -7
44 -11 50 -33 52 -14 1 -38 -2 -55 -6z m18 -164 c3 -8 8 -40 12 -73 4 -32 14
-75 22 -94 8 -19 11 -45 8 -59 -5 -21 -10 -23 -42 -18 -97 16 -136 156 -63
229 31 30 55 36 63 15z"/>
<path d="M9553 4666 c-81 -26 -116 -65 -144 -165 -16 -55 -17 -74 -8 -97 6
-16 15 -43 19 -60 6 -28 5 -30 -15 -27 -28 6 -43 -14 -54 -71 -8 -43 -7 -48
14 -62 13 -9 74 -27 137 -41 62 -13 136 -31 163 -39 72 -20 174 -44 190 -44
14 0 35 71 35 118 0 29 -1 30 -97 51 -159 36 -206 53 -240 87 -78 76 -15 213
91 201 22 -3 95 -19 161 -36 66 -17 129 -29 141 -26 16 3 24 18 33 60 7 30 9
60 6 65 -8 14 -47 29 -100 40 -22 4 -91 20 -154 34 -130 30 -122 29 -178 12z"/>
<path d="M1270 4389 c-41 -16 -101 -39 -133 -50 -32 -11 -83 -34 -113 -51 -95
-53 -129 -161 -84 -260 33 -72 53 -96 102 -128 l47 -31 -19 -42 c-23 -51 -25
-102 -5 -141 8 -15 15 -34 15 -41 0 -16 87 -105 103 -105 6 -1 2 -9 -10 -19
-28 -23 -28 -43 -3 -98 20 -46 42 -54 76 -28 10 8 26 15 36 15 9 0 69 20 135
45 65 25 153 58 196 72 87 30 92 40 57 108 -11 22 -20 45 -20 52 0 15 -14 17
-38 4 -9 -5 -69 -28 -132 -50 -144 -51 -198 -54 -240 -13 -35 35 -47 90 -28
128 13 28 123 93 158 94 8 0 28 7 44 15 15 8 33 15 38 15 5 0 29 9 54 20 36
17 44 25 44 48 0 24 -34 112 -43 112 -3 0 -93 -32 -242 -85 -110 -40 -195 7
-195 107 0 45 20 71 72 92 24 10 57 24 73 31 17 7 66 26 110 41 111 38 111 38
79 112 -17 40 -32 62 -43 61 -9 0 -50 -14 -91 -30z"/>
<path d="M9288 3985 c-44 -29 -89 -116 -96 -186 l-5 -49 62 0 61 0 0 33 c0 52
19 70 73 69 26 -1 57 -8 69 -15 13 -8 52 -25 88 -37 36 -13 69 -27 74 -31 6
-6 3 -23 -7 -44 -9 -20 -17 -49 -17 -65 0 -25 5 -31 40 -41 48 -15 65 -4 82
53 6 22 17 42 23 45 7 2 35 -5 63 -16 39 -16 53 -17 60 -8 12 15 55 127 50
131 -1 1 -28 11 -58 22 -57 20 -61 28 -45 82 6 19 2 24 -29 37 -54 23 -73 19
-85 -15 -7 -22 -16 -30 -33 -30 -13 0 -28 4 -33 8 -6 4 -37 18 -70 31 -33 12
-75 29 -93 37 -51 22 -130 17 -174 -11z"/>
<path d="M9165 3618 c-59 -30 -113 -86 -148 -153 -28 -53 -32 -70 -32 -140 0
-69 4 -86 27 -126 123 -209 405 -195 509 26 25 51 29 72 29 143 0 62 -5 92
-19 120 -27 51 -76 99 -133 128 -63 32 -173 33 -233 2z m158 -137 c14 -5 41
-26 61 -47 32 -33 36 -43 36 -91 0 -122 -116 -182 -227 -118 -43 26 -83 85
-83 122 1 37 39 103 72 123 35 21 100 26 141 11z"/>
<path d="M1683 3446 c-28 -19 -55 -35 -60 -37 -38 -17 -164 -101 -193 -129
-50 -48 -76 -129 -60 -185 32 -110 124 -237 190 -265 35 -15 46 -8 74 45 17
31 18 38 5 45 -76 45 -120 104 -127 170 -3 34 1 51 15 69 27 33 44 24 82 -42
62 -109 141 -177 205 -177 42 0 102 36 126 75 55 88 -7 255 -111 298 l-47 20
21 18 22 18 -25 46 c-21 39 -46 65 -62 65 -2 0 -27 -15 -55 -34z m108 -215
c32 -32 39 -45 39 -79 0 -32 -6 -45 -26 -61 -25 -19 -28 -20 -53 -5 -27 16
-78 81 -97 124 -16 36 7 60 59 60 32 0 46 -7 78 -39z"/>
<path d="M8840 3118 c-69 -73 -70 -68 27 -145 48 -37 109 -89 135 -114 45 -44
48 -49 48 -99 0 -47 -4 -56 -36 -86 -20 -20 -46 -34 -60 -34 -36 0 -90 31
-159 90 -107 92 -166 133 -174 124 -4 -5 -25 -31 -47 -58 l-39 -49 40 -35 c22
-19 74 -61 115 -94 41 -33 85 -74 98 -91 58 -82 -13 -203 -108 -182 -17 4 -65
35 -107 68 -42 34 -101 82 -132 106 l-55 44 -43 -49 c-23 -27 -43 -56 -43 -65
0 -8 15 -26 32 -39 18 -13 44 -34 58 -47 67 -59 179 -144 210 -159 142 -69
301 38 314 211 3 31 6 58 8 59 2 1 26 8 53 14 63 16 84 30 129 85 26 32 38 57
42 93 9 76 11 80 35 58 21 -19 21 -18 65 30 24 28 44 55 44 60 0 6 -39 43 -87
81 -48 39 -127 104 -176 145 -49 41 -102 85 -118 98 l-29 23 -40 -43z"/>
<path d="M1888 2859 c-54 -45 -98 -88 -98 -96 0 -24 62 -93 83 -93 11 0 49 25
84 55 36 30 73 55 84 55 28 0 107 -77 135 -132 51 -100 19 -215 -78 -282 -60
-41 -110 -52 -182 -42 -85 13 -196 143 -196 231 0 39 -11 47 -89 59 l-43 7 4
-78 c3 -59 11 -92 31 -135 38 -77 130 -169 213 -209 59 -29 76 -33 148 -32 81
0 104 7 200 59 64 35 126 121 155 215 25 81 8 188 -45 283 -51 92 -195 204
-272 212 -34 4 -45 -2 -134 -77z"/>
<path d="M8152 2345 c-81 -35 -152 -117 -152 -175 l0 -33 -24 22 -25 23 -28
-20 c-48 -34 -66 -59 -60 -84 4 -13 45 -67 92 -121 47 -55 88 -104 93 -111 4
-7 29 -29 55 -49 43 -33 55 -37 109 -37 48 0 72 6 120 32 86 46 198 177 198
232 0 13 -66 46 -94 46 -8 0 -21 -17 -29 -38 -20 -50 -96 -119 -140 -127 -38
-7 -97 16 -96 38 0 6 32 39 71 72 101 85 128 125 128 190 0 115 -111 186 -218
140z m51 -126 c29 -16 37 -28 37 -61 0 -20 -15 -40 -62 -82 -34 -31 -65 -56
-69 -56 -16 0 -49 54 -49 79 0 36 33 87 72 111 38 23 42 24 71 9z"/>
<path d="M2655 2156 c-53 -25 -98 -68 -133 -127 -32 -53 -31 -190 0 -251 31
-59 83 -108 152 -142 143 -72 294 -30 372 101 25 43 28 58 28 138 0 104 -16
146 -81 206 -56 52 -66 58 -125 80 -73 26 -151 25 -213 -5z m215 -134 c74 -55
88 -129 40 -206 -66 -103 -204 -100 -262 7 -22 42 -22 70 1 115 51 99 150 136
221 84z"/>
<path d="M7590 1937 c-44 -22 -120 -89 -120 -106 0 -5 19 -23 42 -40 l41 -30
34 29 c40 36 72 38 100 8 31 -34 133 -191 133 -205 0 -7 -20 -24 -45 -39 -30
-17 -45 -33 -45 -46 0 -22 37 -88 48 -88 4 0 31 16 59 35 l53 35 32 -50 c18
-27 38 -50 44 -50 16 0 99 47 113 64 9 11 5 24 -19 59 -36 54 -37 60 -5 81 30
20 31 34 4 80 -23 39 -34 43 -63 21 -11 -8 -25 -15 -32 -15 -7 0 -34 35 -60
78 -62 100 -110 160 -148 183 -42 26 -110 24 -166 -4z"/>
<path d="M3233 1840 c-28 -11 -28 -16 -3 -74 l19 -46 53 0 c61 -1 117 -33 155
-89 22 -32 31 -90 17 -104 -4 -3 -40 12 -80 33 -41 22 -109 59 -151 81 -43 23
-90 48 -105 57 -35 20 -50 8 -74 -61 -52 -156 29 -309 190 -360 69 -22 124
-21 186 2 111 42 170 124 178 247 4 62 1 79 -21 125 -41 88 -113 146 -220 179
-67 21 -109 24 -144 10z m185 -394 c22 -21 -29 -58 -85 -63 -62 -6 -109 24
-142 90 -20 40 -22 52 -12 73 l11 25 107 -57 c60 -31 114 -62 121 -68z"/>
<path d="M7345 1789 c-22 -12 -50 -27 -63 -35 l-22 -15 34 -62 c18 -34 59
-111 91 -172 109 -206 123 -230 138 -233 8 -2 40 11 71 28 l56 32 -69 131
c-38 73 -77 148 -88 167 -11 19 -37 68 -58 108 -20 39 -40 72 -44 72 -3 -1
-24 -10 -46 -21z"/>
<path d="M3760 1594 c-6 -14 -10 -31 -10 -37 0 -10 -22 -72 -51 -142 -4 -11
-12 -36 -18 -55 -12 -42 -38 -118 -51 -145 -8 -18 -24 -63 -82 -234 -10 -30
-18 -57 -18 -61 0 -9 62 -35 106 -44 29 -6 31 -5 51 46 12 29 31 81 44 116 12
34 23 62 26 62 2 0 18 -16 35 -36 44 -50 101 -76 181 -82 84 -6 138 13 193 68
67 66 88 119 88 226 0 76 -4 96 -23 127 -65 105 -207 164 -306 127 -25 -10
-26 -9 -21 17 6 27 3 29 -56 51 -78 27 -76 27 -88 -4z m291 -198 c86 -59 71
-202 -29 -268 -59 -39 -157 -6 -191 66 -12 23 -21 53 -21 67 0 38 40 113 74
137 44 31 119 30 167 -2z"/>
<path d="M6932 1601 c-73 -27 -116 -56 -152 -101 -44 -56 -60 -101 -60 -172 0
-76 39 -169 90 -211 118 -100 294 -88 417 28 112 106 120 262 18 383 -67 79
-207 112 -313 73z m154 -133 c48 -33 74 -86 74 -148 0 -83 -57 -140 -142 -140
-41 0 -54 5 -88 36 -60 55 -77 140 -40 202 43 70 133 93 196 50z"/>
<path d="M6471 1439 l-33 -10 7 -57 c4 -31 13 -75 21 -97 17 -49 29 -173 20
-209 -9 -38 -80 -86 -126 -86 -31 0 -44 7 -69 35 -16 19 -34 52 -40 72 -17 67
-40 166 -51 226 -7 36 -16 57 -25 57 -18 0 -127 -28 -133 -34 -6 -6 34 -187
54 -241 8 -23 14 -53 14 -68 0 -68 76 -157 152 -177 77 -21 187 10 242 69 35
36 42 38 49 11 6 -23 48 -27 110 -9 33 9 38 14 33 32 -4 12 -11 42 -16 67 -5
25 -19 86 -30 135 -12 50 -28 121 -35 159 -26 127 -31 136 -73 135 -20 0 -52
-5 -71 -10z"/>
<path d="M4401 1373 c-6 -21 -11 -44 -11 -52 0 -8 -7 -37 -15 -65 -8 -28 -24
-96 -36 -151 -12 -55 -28 -124 -36 -153 -8 -30 -11 -57 -7 -61 13 -11 135 -33
142 -26 4 4 12 32 19 63 7 31 20 89 29 127 8 39 20 95 25 125 6 30 16 75 24
100 25 82 24 93 -15 112 -19 10 -52 18 -72 18 -34 0 -38 -3 -47 -37z"/>
<path d="M4882 1308 c-7 -7 -12 -16 -12 -20 0 -7 -191 -352 -220 -398 -5 -8
-18 -31 -28 -50 -10 -19 -37 -68 -61 -108 -24 -40 -42 -74 -40 -77 3 -2 38 -7
79 -10 l75 -7 47 84 c25 45 60 108 76 138 79 142 150 261 155 253 2 -4 20 -60
40 -123 20 -63 50 -158 67 -210 17 -52 35 -112 39 -133 5 -21 13 -43 19 -49 6
-6 48 -13 93 -16 77 -4 81 -4 71 14 -5 11 -22 62 -37 114 -15 52 -31 99 -36
104 -5 6 -9 18 -9 27 0 10 -16 66 -35 126 -19 59 -44 137 -55 173 -51 162 -54
169 -74 174 -38 10 -142 6 -154 -6z"/>
<path d="M5535 1285 c-19 -18 -25 -35 -25 -69 0 -37 5 -48 31 -70 35 -30 67
-33 109 -11 56 29 67 93 24 144 -22 26 -33 31 -70 31 -34 0 -51 -6 -69 -25z"/>
<path d="M7635 1225 c-89 -45 -86 -147 5 -170 31 -7 87 27 109 66 20 36 1 82
-44 103 -40 19 -34 19 -70 1z"/>
<path d="M4259 761 c-33 -33 -37 -66 -11 -97 58 -72 172 -50 172 32 0 48 -14
70 -51 83 -51 18 -78 13 -110 -18z"/>
</g>
</svg>
