<?xml version="1.0" encoding="UTF-8"?>
<!DOCTYPE svg PUBLIC "-//W3C//DTD SVG 1.1//EN" "http://www.w3.org/Graphics/SVG/1.1/DTD/svg11.dtd">
<svg xmlns="http://www.w3.org/2000/svg" version="1.1" width="100px" height="100px" style="shape-rendering:geometricPrecision; text-rendering:geometricPrecision; image-rendering:optimizeQuality; fill-rule:evenodd; clip-rule:evenodd" xmlns:xlink="http://www.w3.org/1999/xlink">
<g><path style="opacity:0.965" fill="#c7ebe4" d="M 68.5,15.5 C 67.0484,16.3019 65.3817,16.8019 63.5,17C 63.9574,17.414 64.2907,17.914 64.5,18.5C 63.1667,19.1667 61.8333,19.8333 60.5,20.5C 65.456,21.4941 70.456,21.8275 75.5,21.5C 77.3843,24.6035 78.7176,27.9368 79.5,31.5C 75.0418,28.3258 71.3752,28.9924 68.5,33.5C 65.1387,35.2039 61.4721,36.5372 57.5,37.5C 52.5408,36.7405 50.7074,34.0739 52,29.5C 50.9039,31.8892 50.0706,34.3892 49.5,37C 45.6382,36.999 41.8049,36.499 38,35.5C 32.3911,35.436 28.7245,38.1027 27,43.5C 26.6386,50.1987 25.9719,56.8654 25,63.5C 24.2917,64.3805 23.4584,65.0472 22.5,65.5C 18.9056,63.9911 15.4056,61.9911 12,59.5C 10.2899,55.2372 8.78989,50.9039 7.5,46.5C 10.0758,45.7178 12.0758,44.2178 13.5,42C 15.3453,40.872 17.3453,40.372 19.5,40.5C 21.4842,30.5204 27.4842,26.5204 37.5,28.5C 43.7258,14.2059 54.0592,9.87261 68.5,15.5 Z"/></g>
<g><path style="opacity:1" fill="#e9f8f5" d="M 68.5,15.5 C 71.2469,15.1866 73.9135,15.52 76.5,16.5C 75.8333,17.1667 75.1667,17.8333 74.5,18.5C 75.8333,19.1667 77.1667,19.8333 78.5,20.5C 77.675,21.3857 76.675,21.719 75.5,21.5C 70.456,21.8275 65.456,21.4941 60.5,20.5C 61.8333,19.8333 63.1667,19.1667 64.5,18.5C 64.2907,17.914 63.9574,17.414 63.5,17C 65.3817,16.8019 67.0484,16.3019 68.5,15.5 Z"/></g>
<g><path style="opacity:1" fill="#81827e" d="M 60.5,30.5 C 58.6406,29.4058 56.6406,28.5725 54.5,28C 57.3752,27.0387 59.3752,27.872 60.5,30.5 Z"/></g>
<g><path style="opacity:1" fill="#7a6d68" d="M 79.5,31.5 C 79.5,31.8333 79.5,32.1667 79.5,32.5C 79.1667,32.5 78.8333,32.5 78.5,32.5C 75.1323,29.6241 72.1323,29.9574 69.5,33.5C 69.1667,33.5 68.8333,33.5 68.5,33.5C 71.3752,28.9924 75.0418,28.3258 79.5,31.5 Z"/></g>
<g><path style="opacity:1" fill="#f4f2e5" d="M 78.5,32.5 C 78.9867,33.4734 79.4867,34.4734 80,35.5C 81.5994,33.9644 83.4328,33.4644 85.5,34C 87.3235,36.8668 89.4902,39.3668 92,41.5C 92.9724,44.2942 92.1391,46.2942 89.5,47.5C 85.8333,47.5 82.1667,47.5 78.5,47.5C 77.7761,44.9174 76.9428,42.2507 76,39.5C 73.591,37.5833 71.4243,35.5833 69.5,33.5C 72.1323,29.9574 75.1323,29.6241 78.5,32.5 Z"/></g>
<g><path style="opacity:1" fill="#8d9591" d="M 60.5,30.5 C 65.972,32.9256 68.1387,31.259 67,25.5C 66.1667,24.6667 65.3333,23.8333 64.5,23C 67.3564,23.1869 69.0231,24.8536 69.5,28C 69,31.1667 67.1667,33 64,33.5C 62.0503,33.2926 60.8836,32.2926 60.5,30.5 Z"/></g>
<g><path style="opacity:0.6" fill="#523935" d="M 78.5,32.5 C 78.8333,32.5 79.1667,32.5 79.5,32.5C 82.6492,32.2114 85.6492,32.7114 88.5,34C 89.1361,36.7745 90.6361,38.9412 93,40.5C 94.3351,44.6081 93.1684,47.6081 89.5,49.5C 89.5,48.8333 89.5,48.1667 89.5,47.5C 92.1391,46.2942 92.9724,44.2942 92,41.5C 89.4902,39.3668 87.3235,36.8668 85.5,34C 83.4328,33.4644 81.5994,33.9644 80,35.5C 79.4867,34.4734 78.9867,33.4734 78.5,32.5 Z"/></g>
<g><path style="opacity:1" fill="#908c87" d="M 78.5,47.5 C 82.1667,47.5 85.8333,47.5 89.5,47.5C 89.5,48.1667 89.5,48.8333 89.5,49.5C 85.8333,49.5 82.1667,49.5 78.5,49.5C 78.5,48.8333 78.5,48.1667 78.5,47.5 Z"/></g>
<g><path style="opacity:0.968" fill="#c5e9e2" d="M 78.5,49.5 C 82.1667,49.5 85.8333,49.5 89.5,49.5C 88.2952,52.9969 88.7952,55.9969 91,58.5C 93.2894,70.2124 88.4561,75.7124 76.5,75C 70.9299,81.2001 64.5966,82.0334 57.5,77.5C 49.6132,84.0485 40.9465,85.2152 31.5,81C 29.2941,78.9633 27.2941,76.7966 25.5,74.5C 27.7354,74.7947 29.7354,74.4614 31.5,73.5C 34.1667,73.5 36.8333,73.5 39.5,73.5C 41.2884,74.6225 43.2884,74.7891 45.5,74C 48.1339,71.7067 48.1339,69.54 45.5,67.5C 45.1961,66.8501 44.8627,66.1835 44.5,65.5C 49.457,63.5373 52.1237,59.8706 52.5,54.5C 52.6199,62.8804 56.6199,65.8804 64.5,63.5C 66.2764,65.5378 67.9431,67.7045 69.5,70C 72.9563,71.123 75.7897,70.2896 78,67.5C 78.4995,61.5092 78.6662,55.5092 78.5,49.5 Z"/></g>
<g><path style="opacity:1" fill="#553e40" d="M 68.5,33.5 C 68.8333,33.5 69.1667,33.5 69.5,33.5C 71.4243,35.5833 73.591,37.5833 76,39.5C 76.9428,42.2507 77.7761,44.9174 78.5,47.5C 78.5,48.1667 78.5,48.8333 78.5,49.5C 78.6662,55.5092 78.4995,61.5092 78,67.5C 75.7897,70.2896 72.9563,71.123 69.5,70C 67.9431,67.7045 66.2764,65.5378 64.5,63.5C 56.6199,65.8804 52.6199,62.8804 52.5,54.5C 52.1237,59.8706 49.457,63.5373 44.5,65.5C 44.8627,66.1835 45.1961,66.8501 45.5,67.5C 43.8205,66.2178 42.4871,64.5511 41.5,62.5C 40.5,62.5 39.5,62.5 38.5,62.5C 37.92,58.5585 35.5867,56.3918 31.5,56C 30.3333,54.8333 29.1667,53.6667 28,52.5C 27.1925,56.0267 27.3592,59.3601 28.5,62.5C 28.8808,64.9418 28.2141,65.6085 26.5,64.5C 24.7095,66.4597 22.5428,67.793 20,68.5C 19.3333,69.8333 19.3333,71.1667 20,72.5C 23.73,73.4601 27.5633,73.7935 31.5,73.5C 29.7354,74.4614 27.7354,74.7947 25.5,74.5C 21.2445,75.5455 18.5778,74.0455 17.5,70C 18.3988,67.599 20.0655,66.099 22.5,65.5C 23.4584,65.0472 24.2917,64.3805 25,63.5C 25.9719,56.8654 26.6386,50.1987 27,43.5C 28.7245,38.1027 32.3911,35.436 38,35.5C 41.8049,36.499 45.6382,36.999 49.5,37C 50.0706,34.3892 50.9039,31.8892 52,29.5C 50.7074,34.0739 52.5408,36.7405 57.5,37.5C 61.4721,36.5372 65.1387,35.2039 68.5,33.5 Z"/></g>
<g><path style="opacity:1" fill="#787aab" d="M 47.5,40.5 C 50.3553,39.1968 53.3553,39.1968 56.5,40.5C 55.8625,44.6996 55.1959,48.8663 54.5,53C 49.221,53.5578 47.5544,51.3911 49.5,46.5C 49.639,44.1175 48.9723,42.1175 47.5,40.5 Z"/></g>
<g><path style="opacity:1" fill="#9897bd" d="M 75.5,52.5 C 73.1293,55.1842 70.1293,56.5175 66.5,56.5C 65.3764,63.1451 61.8764,64.8118 56,61.5C 53.7214,57.7298 54.2214,54.3965 57.5,51.5C 55.0509,41.206 59.0509,36.3727 69.5,37C 76.3141,40.1515 78.3141,45.3181 75.5,52.5 Z"/></g>
<g><path style="opacity:1" fill="#c09327" d="M 72.5,44.5 C 72.5,45.8333 72.5,47.1667 72.5,48.5C 71.209,48.7373 70.209,48.404 69.5,47.5C 69.5,46.5 69.5,45.5 69.5,44.5C 70.5,44.5 71.5,44.5 72.5,44.5 Z"/></g>
<g><path style="opacity:1" fill="#c13b4a" d="M 61.5,44.5 C 63.0481,44.8212 63.7148,45.8212 63.5,47.5C 62.5,47.5 61.5,47.5 60.5,47.5C 60.2627,46.209 60.596,45.209 61.5,44.5 Z"/></g>
<g><path style="opacity:1" fill="#7e6b75" d="M 65.5,40.5 C 66.1667,44.5 66.8333,44.5 67.5,40.5C 68.9549,42.1343 70.6216,43.4676 72.5,44.5C 71.5,44.5 70.5,44.5 69.5,44.5C 69.5,45.5 69.5,46.5 69.5,47.5C 68.596,46.791 68.2627,45.791 68.5,44.5C 67.1667,44.5 65.8333,44.5 64.5,44.5C 64.5,45.8333 64.5,47.1667 64.5,48.5C 62.901,48.7678 61.5676,48.4345 60.5,47.5C 61.5,47.5 62.5,47.5 63.5,47.5C 63.7148,45.8212 63.0481,44.8212 61.5,44.5C 62.8333,43.1667 64.1667,41.8333 65.5,40.5 Z"/></g>
<g><path style="opacity:1" fill="#85a944" d="M 65.5,40.5 C 66.1667,40.5 66.8333,40.5 67.5,40.5C 66.8333,44.5 66.1667,44.5 65.5,40.5 Z"/></g>
<g><path style="opacity:1" fill="#9d9bc2" d="M 41.5,62.5 C 39.0283,61.3579 38.0283,59.3579 38.5,56.5C 29.1516,54.8092 26.3183,49.4759 30,40.5C 36.5286,34.7415 42.3619,35.4081 47.5,42.5C 48.7826,45.3182 48.7826,48.1516 47.5,51C 51.812,55.4949 51.4786,59.4949 46.5,63C 44.8034,63.3845 43.1368,63.2178 41.5,62.5 Z"/></g>
<g><path style="opacity:1" fill="#5c4c5f" d="M 36.5,41.5 C 37.209,40.596 38.209,40.2627 39.5,40.5C 39.5,41.8333 39.5,43.1667 39.5,44.5C 40.8333,44.5 42.1667,44.5 43.5,44.5C 43.5,45.8333 43.5,47.1667 43.5,48.5C 42.1667,48.5 40.8333,48.5 39.5,48.5C 39.5,49.8333 39.5,51.1667 39.5,52.5C 38.209,52.7373 37.209,52.404 36.5,51.5C 38.1765,50.8166 38.8432,49.4832 38.5,47.5C 43.8333,46.8333 43.8333,46.1667 38.5,45.5C 38.8432,43.5168 38.1765,42.1834 36.5,41.5 Z"/></g>
<g><path style="opacity:1" fill="#5d4b5a" d="M 36.5,41.5 C 36.5,42.8333 36.5,44.1667 36.5,45.5C 32.5,46.1667 32.5,46.8333 36.5,47.5C 36.5,48.8333 36.5,50.1667 36.5,51.5C 35.596,50.791 35.2627,49.791 35.5,48.5C 34.5,48.5 33.5,48.5 32.5,48.5C 32.5,47.1667 32.5,45.8333 32.5,44.5C 33.5,44.5 34.5,44.5 35.5,44.5C 35.2627,43.209 35.596,42.209 36.5,41.5 Z"/></g>
<g><path style="opacity:1" fill="#696ba2" d="M 36.5,41.5 C 38.1765,42.1834 38.8432,43.5168 38.5,45.5C 43.8333,46.1667 43.8333,46.8333 38.5,47.5C 38.8432,49.4832 38.1765,50.8166 36.5,51.5C 36.5,50.1667 36.5,48.8333 36.5,47.5C 32.5,46.8333 32.5,46.1667 36.5,45.5C 36.5,44.1667 36.5,42.8333 36.5,41.5 Z"/></g>
<g><path style="opacity:1" fill="#736d93" d="M 38.5,62.5 C 38.2172,63.2891 37.7172,63.9558 37,64.5C 34.9846,60.1206 32.1513,59.454 28.5,62.5C 27.3592,59.3601 27.1925,56.0267 28,52.5C 29.1667,53.6667 30.3333,54.8333 31.5,56C 35.5867,56.3918 37.92,58.5585 38.5,62.5 Z"/></g>
<g><path style="opacity:1" fill="#797aac" d="M 75.5,52.5 C 76.8048,54.3972 77.4714,56.7305 77.5,59.5C 78.9984,66.499 76.3317,69.3323 69.5,68C 64.8333,62 66.1667,58 73.5,56C 74.8228,55.1841 75.4894,54.0174 75.5,52.5 Z"/></g>
<g><path style="opacity:1" fill="#67618a" d="M 42.5,54.5 C 47.2411,54.1614 48.5744,56.1614 46.5,60.5C 41.8268,61.1283 40.4935,59.1283 42.5,54.5 Z"/></g>
<g><path style="opacity:1" fill="#67618b" d="M 58.5,54.5 C 62.6772,53.8416 64.1772,55.5082 63,59.5C 61.3333,62.1667 59.6667,62.1667 58,59.5C 57.3603,57.735 57.5269,56.0683 58.5,54.5 Z"/></g>
<g><path style="opacity:1" fill="#f6f5e8" d="M 38.5,62.5 C 39.5,62.5 40.5,62.5 41.5,62.5C 42.4871,64.5511 43.8205,66.2178 45.5,67.5C 46.7329,72.2715 44.7329,74.2715 39.5,73.5C 36.8333,73.5 34.1667,73.5 31.5,73.5C 27.5633,73.7935 23.73,73.4601 20,72.5C 19.3333,71.1667 19.3333,69.8333 20,68.5C 22.5428,67.793 24.7095,66.4597 26.5,64.5C 28.2141,65.6085 28.8808,64.9418 28.5,62.5C 32.1513,59.454 34.9846,60.1206 37,64.5C 37.7172,63.9558 38.2172,63.2891 38.5,62.5 Z"/></g>
<g><path style="opacity:1" fill="#6d5e5a" d="M 45.5,67.5 C 48.1339,69.54 48.1339,71.7067 45.5,74C 43.2884,74.7891 41.2884,74.6225 39.5,73.5C 44.7329,74.2715 46.7329,72.2715 45.5,67.5 Z"/></g>
</svg>
